# xmcd
#
# Track frame offsets:
#	150
#	12074
#	26571
#	39239
#	49975
#	71824
#	81142
#	102018
#	114513
#	132829
#	147618
#	155806
#	171347
#	186555
#	202505
#
# Disc length: 3049 seconds
#
# Revision: 0
# Processed by: cddbd v1.5PL3 Copyright (c) Steve Scherf et al.
# Submitted via: audiograbber 1.82.02
#
DISCID=ce0be70f
DTITLE=Campanula - Ztraceny raj
DYEAR=1997
DGENRE=Bluegrass
TTITLE0=Kdo se citi sam
TTITLE1=Bezva plan
TTITLE2=Bozi mlyny
TTITLE3=Kdyby
TTITLE4=Nejkrasnejsi slova
TTITLE5=Hvezda
TTITLE6=Chlupaty angrest
TTITLE7=Vzpominky
TTITLE8=Bernadetta
TTITLE9=Blaznivy sen
TTITLE10=Petre, at zvony zvoni
TTITLE11=Min, nebo vic
TTITLE12=Hledani
TTITLE13=Nightingale sang in Berkeley square
TTITLE14=Ztraceny raj
EXTD=
EXTT0=
EXTT1=
EXTT2=
EXTT3=
EXTT4=
EXTT5=
EXTT6=
EXTT7=
EXTT8=
EXTT9=
EXTT10=
EXTT11=
EXTT12=
EXTT13=
EXTT14=
PLAYORDER=
